<?xml version="1.0" encoding="UTF-8" standalone="no"?>
<!-- Created with Inkscape (http://www.inkscape.org/) -->

<svg
   width="149.99997mm"
   height="98.017197mm"
   viewBox="0 0 149.99997 98.017197"
   version="1.1"
   id="svg1054"
   inkscape:version="1.1 (c68e22c387, 2021-05-23)"
   sodipodi:docname="logo.svg"
   xmlns:inkscape="http://www.inkscape.org/namespaces/inkscape"
   xmlns:sodipodi="http://sodipodi.sourceforge.net/DTD/sodipodi-0.dtd"
   xmlns="http://www.w3.org/2000/svg"
   xmlns:svg="http://www.w3.org/2000/svg">
  <sodipodi:namedview
     id="namedview1056"
     pagecolor="#ffffff"
     bordercolor="#666666"
     borderopacity="1.0"
     inkscape:pageshadow="2"
     inkscape:pageopacity="0.0"
     inkscape:pagecheckerboard="0"
     inkscape:document-units="mm"
     showgrid="false"
     inkscape:zoom="0.77771465"
     inkscape:cx="212.80299"
     inkscape:cy="388.96014"
     inkscape:window-width="3840"
     inkscape:window-height="2081"
     inkscape:window-x="-9"
     inkscape:window-y="-9"
     inkscape:window-maximized="1"
     inkscape:current-layer="layer1"
     fit-margin-top="0"
     fit-margin-left="0"
     fit-margin-right="0"
     fit-margin-bottom="0" />
  <defs
     id="defs1051" />
  <g
     inkscape:label="Layer 1"
     inkscape:groupmode="layer"
     id="layer1"
     transform="translate(-29.103106,-45.568724)">
    <path
       d="m 78.004699,50.967072 v 7.9e-5 c -1.519184,3.214873 -2.380879,6.796591 -2.318993,10.484935 0.0029,0.0057 0.0029,0.01154 0.0026,0.01823 -0.08565,5.486241 1.829408,10.936049 5.25899,15.431981 3.3097,4.338611 8.009943,7.744804 13.453824,9.220888 0.0049,5.29e-4 0.01109,0.0024 0.01799,0.0047 5.459386,1.663144 11.41373,1.318895 16.82475,-0.738664 5.30489,-2.016972 10.04123,-5.669333 13.11164,-10.567961 0.003,-0.0047 0.007,-0.01071 0.0115,-0.01754 3.29181,-4.910772 4.7376,-10.882127 4.37295,-16.798051 -0.10792,-1.75096 -0.37446,-3.492738 -0.79674,-5.194935 -13.84731,-4.0522 -28.897711,-7.008548 -49.938515,-1.84367 z"
       style="fill:#003f7d;fill-opacity:0.473684;fill-rule:evenodd;stroke-width:0.264583"
       id="path824" />
    <path
       d="m 113.06937,48.233556 c 7.16137,3.574944 7.16137,27.091349 -10.8645,28.562405 C 84.889263,75.955962 83.017469,54.961275 93.483115,48.81675 100.86936,47.087619 106.08432,47.367839 113.06937,48.233556 Z"
       style="fill:#1b1918;fill-rule:evenodd;stroke-width:0.264583"
       id="path826" />
    <path
       d="m 120.23074,87.878246 c 0.002,-0.0013 0.005,-0.0028 0.007,-0.004 3.67972,-2.269728 6.88589,-5.132626 9.69846,-7.81476 3.71581,-3.543379 5.9037,-5.88428 9.22838,-8.792263 l -0.009,0.0079 c 5.51482,-4.921435 10.29568,-7.913635 12.55125,-9.143471 1.90889,-1.040924 3.08983,-1.346173 3.58513,-1.546886 -0.51067,0.400579 -1.18724,1.115245 -2.99895,2.463535 -1.95005,1.451398 -6.6572,4.752975 -11.87002,9.615884 -0.003,0.0031 -0.006,0.0057 -0.009,0.008 -2.80223,2.535369 -5.72887,5.614326 -9.06907,8.852323 -2.81544,2.729389 -6.13185,5.734791 -9.99953,8.138848 v 0 z"
       style="fill:#000000;stroke-width:0.264583"
       id="path836" />
    <g
       id="Layer1000"
       style="fill:#003f7d;fill-opacity:1"
       transform="matrix(0.26458333,0,0,0.26458333,246.16047,196.32368)">
      <path
         d="m -511.0467,-313.6256 h -22.5439 v 36.6342 h -13.387 v -36.6342 h -22.5439 c 0,30.0586 0,60.1179 0,90.1765 h 22.5439 v -36.6342 h 13.387 v 36.6342 h 22.5439 c 0,-30.0586 0,-60.1179 0,-90.1765 z"
         style="fill:#003f7d;fill-opacity:1;fill-rule:evenodd"
         id="path838" />
      <path
         d="m -820.3743,-313.6255 h 22.5449 32.4082 v 16.9081 h -32.4082 v 19.726 h 28.181 v 16.9081 h -28.181 v 36.6342 h -22.5449 c 0,-29.5889 0,-59.1445 0,-90.1764 z"
         style="fill:#003f7d;fill-opacity:1;fill-rule:evenodd"
         id="path840" />
      <path
         d="m -737.2394,-289.7292 v 42.4247 c 0,10.3463 15.016,10.9869 15.016,0 v -42.4247 c 0,-11.0861 -15.016,-10.5374 -15.016,0 z m -22.5449,3.2122 c 0,-8.8705 2.5284,-15.6061 7.6064,-20.2487 5.0365,-4.5804 12.498,-6.8599 22.3842,-6.8599 10.2182,0 17.804,2.2795 22.7577,6.8599 4.9117,4.5595 7.3575,11.3159 7.3575,20.2487 v 35.9586 c 0,8.8705 -2.487,15.5855 -7.4821,20.1659 -5.0571,4.6218 -12.6014,6.9427 -22.6331,6.9427 -9.8862,0 -17.3477,-2.3209 -22.3842,-6.9427 -5.078,-4.5804 -7.6064,-11.2954 -7.6064,-20.1659 z"
         style="fill:#003f7d;fill-opacity:1;fill-rule:evenodd"
         id="path842" />
      <path
         d="m -671.4985,-277.235 c 5.1228,0 9.6574,-0.6502 11.5419,-1.9211 1.7864,-1.205 2.6893,-3.2015 2.6893,-6.0187 v -5.1225 c 0,-2.988 -0.8336,-5.1094 -2.5611,-6.2752 -1.6878,-1.139 -5.993,-1.6648 -10.7737,-1.6648 h -0.8964 z m -22.5449,53.7855 v -90.1761 h 33.852 c 8.8793,0 14.473,1.6426 18.7883,4.9943 4.2858,3.3284 6.4031,8.3881 6.4031,15.111 v 5.2505 c 0,4.5463 -0.9819,8.1319 -2.9455,10.7572 -2.0488,2.7535 -5.3144,4.9304 -9.8394,6.531 4.525,1.3876 7.7264,3.3512 9.5835,5.9122 2.1344,2.6466 3.2014,6.403 3.2014,11.248 v 20.7673 c 0,1.1097 0,2.1769 0,3.2015 0,1.0244 0.1285,1.9208 0.4058,2.689 0.6617,1.7931 1.2166,3.031 1.6646,3.7141 h -22.5448 c -0.3413,-0.3415 -0.5583,-0.8649 -0.7683,-1.5369 -0.2175,-0.6961 -0.3832,-1.4186 -0.5334,-2.1772 -0.2559,-1.2946 -0.4912,-3.5 -0.4912,-6.659 v -17.2881 c 0,-4.7811 -0.7034,-8.0981 -2.4332,-9.6046 -0.9283,-0.8088 -2.4241,-1.2789 -4.226,-1.6649 -1.7844,-0.3821 -5.0106,-0.5335 -7.572,-0.5335 v 39.4642 z"
         style="fill:#003f7d;fill-opacity:1;fill-rule:evenodd"
         id="path844" />
      <path
         d="m -575.1583,-313.6256 v 22.544 h -14.7951 v 67.6321 h -23.9539 v -67.6321 h -0.0197 c -4.4408,0 -10.3346,0 -14.7754,0 v -2.5773 c -0.1085,-5.0899 -1.2369,-14.7269 -10.611,-19.9667 22.0751,0 42.08,0 64.1551,0 z"
         style="fill:#003f7d;fill-opacity:1;fill-rule:evenodd"
         id="path846" />
    </g>
    <path
       d="m 179.10307,137.01674 c -0.4341,0.062 -0.83219,0.10875 -1.18367,0.13952 -0.35663,0.0311 -0.70823,0.0465 -1.05973,0.0465 -1.27156,0 -2.18035,-0.2494 -2.72936,-0.74427 -0.55203,-0.49742 -0.82714,-1.37504 -0.82714,-2.63631 v -11.35803 h -2.41909 v -2.23308 h 2.41909 v -6.88753 h 2.79151 v 6.88753 h 3.00839 v 2.23308 h -3.00839 v 10.45335 c 0,0.53745 0.10321,0.98211 0.31004,1.32329 0.20682,0.34118 0.57023,0.55128 1.08561,0.51173 l 1.61274,-0.12396 z"
       style="fill:#000000;fill-rule:evenodd;stroke-width:0.264583"
       id="path849" />
    <path
       d="m 170.27604,137.20272 h -2.79125 v -10.66517 c 0,-1.34916 -0.15949,-2.32929 -0.46527,-2.95164 -0.43838,-0.89194 -1.25097,-1.33887 -2.45033,-1.33887 -1.55072,0 -2.82117,0.41013 -3.81484,1.23039 -0.99102,0.81822 -1.48881,1.96975 -1.48881,3.46335 v 10.26194 h -2.72936 v -23.85918 h 2.72936 v 9.21367 c 0.49628,-0.92009 1.2251,-1.61287 2.18665,-2.07285 0.96152,-0.45998 2.00051,-0.68752 3.117,-0.68752 1.36475,0 2.55368,0.29974 3.56682,0.89947 1.15806,0.68752 1.82989,1.66966 2.0161,2.95164 0.0413,0.35664 0.0725,0.8789 0.093,1.57145 0.0205,0.69254 0.0309,1.21504 0.0309,1.56628 z"
       style="fill:#000000;fill-rule:evenodd;stroke-width:0.264583"
       id="path851" />
    <path
       d="m 153.8813,136.35923 c 0,2.46065 -0.6721,4.28008 -2.016,5.45872 -1.34403,1.17854 -3.26707,1.76797 -5.76902,1.76797 -1.9435,0 -3.51507,-0.35147 -4.71432,-1.05973 -1.44738,-0.85289 -2.17117,-2.17633 -2.17117,-3.96489 h 2.69846 c 0,0.96152 0.47556,1.67479 1.42666,2.1349 0.7444,0.35663 1.6542,0.53245 2.72949,0.53245 2.29513,0 3.77351,-0.5582 4.43516,-1.67479 0.43413,-0.74441 0.65135,-2.35731 0.65135,-4.83838 -0.64106,0.81661 -1.41121,1.42663 -2.31069,1.83501 -0.8995,0.40836 -1.89719,0.61519 -2.99294,0.61519 -2.25382,0 -4.0631,-0.92022 -5.42784,-2.75524 -1.24056,-1.67492 -1.8609,-3.67543 -1.8609,-6.00673 0,-2.35201 0.64106,-4.3474 1.92294,-5.97572 1.40605,-1.79369 3.25665,-2.69307 5.55178,-2.69307 1.03396,0 1.96434,0.21699 2.79138,0.65122 0.82717,0.43424 1.60261,1.07519 2.32627,1.92294 v -2.07801 h 2.72939 z m -2.63634,-7.89348 -0.0931,-1.54569 c -0.22741,-1.40608 -0.72366,-2.51741 -1.48352,-3.34444 -0.84775,-0.92536 -1.94878,-1.39049 -3.3084,-1.39049 -1.64891,0 -2.90515,0.62021 -3.77364,1.85573 -0.75984,1.0959 -1.14234,2.4864 -1.14234,4.17674 0,1.83515 0.36189,3.3187 1.08032,4.4559 0.86847,1.35946 2.17633,2.04198 3.92872,2.04198 1.35948,0 2.4399,-0.42395 3.24622,-1.26656 0.80129,-0.84776 1.28715,-1.96951 1.45264,-3.37556 z"
       style="fill:#000000;fill-rule:evenodd;stroke-width:0.264583"
       id="path853" />
    <path
       d="m 136.64906,137.20272 h -2.72949 v -16.97165 h 2.72949 z"
       style="fill:#000000;fill-rule:evenodd;stroke-width:0.264583"
       id="path855" />
    <path
       d="m 130.65525,130.10009 c 0,2.25382 -0.89937,4.03195 -2.69836,5.33466 -1.61274,1.17864 -3.5874,1.76797 -5.92396,1.76797 -2.64663,0 -4.77637,-0.67207 -6.38911,-2.0161 -1.71625,-1.42666 -2.57442,-3.43233 -2.57442,-6.01702 h 2.91547 l 0.21725,1.39562 c 0.24802,1.30271 0.96128,2.31585 2.14003,3.03967 1.05447,0.64092 2.29513,0.96139 3.72192,0.96139 1.3852,0 2.59487,-0.31004 3.62873,-0.93038 1.26127,-0.74441 1.8919,-1.76797 1.8919,-3.07068 0,-1.03372 -0.44452,-1.88148 -1.3336,-2.54325 -0.72369,-0.53758 -1.64391,-0.92009 -2.76037,-1.1475 l -3.56682,-0.86847 c -1.79899,-0.41352 -3.20506,-1.03386 -4.21807,-1.86103 -1.2614,-1.03372 -1.89204,-2.37775 -1.89204,-4.03196 0,-2.10902 0.83746,-3.78393 2.51225,-5.02446 1.53014,-1.13721 3.38074,-1.70595 5.55178,-1.70595 2.39847,0 4.32154,0.61005 5.76892,1.83001 1.53011,1.30271 2.2951,3.11185 2.2951,5.42769 h -2.91534 c -0.14491,-1.55083 -0.68762,-2.71378 -1.62832,-3.48919 -0.94081,-0.77544 -2.19692,-1.16321 -3.76849,-1.16321 -1.32331,0 -2.42948,0.27929 -3.31856,0.83759 -1.05458,0.66153 -1.58187,1.62306 -1.58187,2.88433 0,1.57154 1.19925,2.69832 3.59773,3.38084 2.23321,0.62021 4.4663,1.23013 6.69951,1.82986 2.41909,1.03373 3.62874,2.76037 3.62874,5.17957 z"
       style="fill:#000000;fill-rule:evenodd;stroke-width:0.264583"
       id="path857" />
    <path
       d="M 161.21935,61.029361 C 127.81701,58.080025 107.45298,32.669574 46.986749,62.776114 104.10307,27.526497 134.89289,56.636431 161.21935,61.029361 Z"
       style="fill:#1b1918;fill-rule:evenodd;stroke-width:0.264583"
       id="path859" />
    <path
       d="m 71.488938,52.773991 c -0.975148,3.213814 -1.408589,6.570424 -1.222878,9.909651 0.0016,0.0067 0.0019,0.01545 0.0019,0.02543 0.175737,6.134787 2.373313,12.004966 5.872374,16.840517 3.599313,4.97414 8.541809,8.8188 14.119119,10.899669 0.0024,0.0011 0.0063,0.0026 0.01019,0.004 l -0.734457,1.900581 C 83.570898,90.106276 78.331036,85.988115 74.536541,80.70473 c -3.689006,-5.136673 -6.009137,-11.383803 -6.1731,-17.934384 -0.161025,-3.142879 0.190739,-6.287161 0.993537,-9.319339 0.716995,-0.234368 1.427851,-0.460349 2.131881,-0.677016 z"
       style="fill:#000000;stroke-width:0.264583"
       id="path869" />
    <path
       d="m 90.259485,90.449255 c 0.0024,0.0011 0.0063,0.0026 0.01019,0.004 3.54592,1.356518 7.175553,2.018638 10.641595,2.106903 0.002,0 0.005,2.38e-4 0.0107,2.65e-4 3.48541,0.127211 6.87893,-0.179308 10.05136,-0.911834 3.42247,-0.790125 6.52994,-2.061607 9.25746,-3.770418 0.002,-0.0013 0.005,-0.0061 0.007,-0.004 l 1.10773,1.789139 0.007,-0.0042 c -2.93431,1.855496 -6.26274,3.220958 -9.89918,4.062518 -3.36796,0.779542 -6.94981,1.097095 -10.6068,0.956257 -3.6912,-0.108294 -7.552424,-0.843915 -11.310592,-2.3241 z"
       style="fill:#000000;stroke-width:0.264583"
       id="path879" />
    <path
       d="m 78.004699,50.967072 c -1.519184,3.214952 -2.380879,6.79667 -2.318993,10.485014 0.0029,0.0057 0.0029,0.01154 0.0026,0.01823 -0.08565,5.486241 1.829408,10.936049 5.25899,15.431981 3.3097,4.338611 8.009943,7.744804 13.453824,9.220888 0.0049,5.29e-4 0.01109,0.0024 0.01799,0.0047 5.459386,1.663144 11.41373,1.318895 16.82475,-0.738664 5.30489,-2.016972 10.04123,-5.669333 13.11164,-10.567961 0.003,-0.0047 0.007,-0.01071 0.0115,-0.01754 3.29181,-4.910772 4.7376,-10.882127 4.37295,-16.798051 -0.10792,-1.75096 -0.37446,-3.492738 -0.79674,-5.194935 0.55613,0.162824 1.11001,0.32758 1.66262,0.493474 0.32348,1.521169 0.52988,3.06541 0.61798,4.613645 0.35378,6.210433 -1.18933,12.489656 -4.68778,17.662419 -3.27091,5.160143 -8.27124,8.964586 -13.82432,11.04863 -5.66833,2.127144 -11.913128,2.469435 -17.651993,0.698764 -5.724394,-1.579104 -10.625721,-5.173257 -14.059378,-9.706258 -3.560313,-4.700402 -5.552546,-10.403337 -5.449702,-16.162046 -0.04868,-3.558751 0.718555,-7.00958 2.07891,-10.146823 0.461778,-0.119698 0.919189,-0.233548 1.375199,-0.345467 z"
       style="fill:#003f7d;fill-opacity:1;fill-rule:evenodd;stroke-width:0.264583"
       id="path881" />
    <g
       id="Layer1001"
       style="fill:#003f7d;fill-opacity:1"
       transform="matrix(0.26458333,0,0,0.26458333,246.16047,196.32368)">
      <path
         d="m -614.9631,-472.3912 c -0.3798,0.7159 -1.1735,2.9991 -2.2789,4.2953 -1.2887,1.5112 -3.5174,2.6537 -5.2761,3.9806 -1.7587,1.3269 -3.4692,3.1562 -5.2761,3.9806 -1.5499,0.7071 -3.9634,0.8434 -4.756,1.012 0.3798,-0.7159 1.1735,-2.9991 2.2789,-4.2953 1.2887,-1.5112 3.5174,-2.6537 5.2761,-3.9806 1.7587,-1.3269 3.4692,-3.1562 5.2761,-3.9806 1.5499,-0.707 3.9633,-0.8434 4.756,-1.012 z"
         style="fill:#003f7d;fill-opacity:1;fill-rule:evenodd"
         id="path883" />
      <path
         d="m -485.421,-530.6512 c 0.7031,-0.4058 2.591,-1.9211 4.2186,-2.4342 1.898,-0.5984 4.3983,-0.3857 6.5975,-0.5785 2.1991,-0.1929 4.6242,-0.8374 6.5974,-0.5785 1.6921,0.2221 3.8149,1.3857 4.5779,1.6629 -0.7031,0.4058 -2.591,1.9211 -4.2186,2.4343 -1.898,0.5983 -4.3983,0.3856 -6.5975,0.5784 -2.1991,0.1929 -4.6242,0.8374 -6.5974,0.5785 -1.6921,-0.222 -3.8149,-1.3857 -4.5779,-1.6629 z"
         style="fill:#003f7d;fill-opacity:1;fill-rule:evenodd"
         id="path885" />
      <path
         d="m -513.4187,-493.8472 c 0.8054,0.08 3.2164,-0.0515 4.8325,0.4796 1.8838,0.6192 3.7819,2.2474 5.6728,3.3711 1.8909,1.1237 4.2284,2.0124 5.6728,3.3711 1.2391,1.1655 2.2761,3.346 2.7314,4.0152 -0.8054,-0.0799 -3.2164,0.0516 -4.8325,-0.4796 -1.8838,-0.6191 -3.7819,-2.2474 -5.6728,-3.3711 -1.8909,-1.1236 -4.2284,-2.0124 -5.6728,-3.371 -1.2391,-1.1655 -2.2761,-3.346 -2.7314,-4.0153 z"
         style="fill:#003f7d;fill-opacity:1;fill-rule:evenodd"
         id="path887" />
      <path
         d="m -475.5872,-471.3655 c 0.8062,0.0804 3.2192,-0.0499 4.8368,0.4821 1.8858,0.6203 3.7862,2.25 5.6793,3.375 1.8931,1.125 4.2329,2.0151 5.6792,3.375 1.2407,1.1664 2.2797,3.3481 2.7357,4.0178 -0.8061,-0.0804 -3.2192,0.0499 -4.8367,-0.4822 -1.8859,-0.6203 -3.7862,-2.25 -5.6793,-3.3749 -1.8931,-1.125 -4.233,-2.0151 -5.6793,-3.375 -1.2406,-1.1665 -2.2797,-3.3482 -2.7357,-4.0178 z"
         style="fill:#003f7d;fill-opacity:1;fill-rule:evenodd"
         id="path889" />
      <path
         d="m -534.619,-432.7128 c 0.4663,0.6629 2.1425,2.4045 2.7976,3.977 0.7636,1.8332 0.7729,4.3376 1.1594,6.5065 0.3865,2.1688 1.2429,4.5223 1.1595,6.5065 -0.0715,1.7019 -1.043,3.9154 -1.2516,4.6985 -0.4663,-0.6628 -2.1425,-2.4045 -2.7976,-3.9769 -0.7636,-1.8333 -0.7729,-4.3377 -1.1594,-6.5066 -0.3865,-2.1688 -1.2429,-4.5223 -1.1595,-6.5065 0.0715,-1.7019 1.043,-3.9154 1.2516,-4.6985 z"
         style="fill:#003f7d;fill-opacity:1;fill-rule:evenodd"
         id="path891" />
      <path
         d="m -589.6191,-444.785 c 0.2126,-0.7821 0.483,-3.1841 1.2752,-4.6921 0.9236,-1.7582 2.8453,-3.3641 4.268,-5.0462 1.4227,-1.682 2.6874,-3.8436 4.268,-5.0461 1.3556,-1.0315 3.6795,-1.6967 4.4155,-2.0361 -0.2126,0.782 -0.483,3.1841 -1.2752,4.6921 -0.9236,1.7582 -2.8453,3.3641 -4.268,5.0462 -1.4227,1.682 -2.6874,3.8436 -4.268,5.0461 -1.3556,1.0315 -3.6795,1.6967 -4.4155,2.0361 z"
         style="fill:#003f7d;fill-opacity:1;fill-rule:evenodd"
         id="path893" />
      <path
         d="m -617.8544,-542.0539 c 0.8057,-0.0772 3.1458,-0.6719 4.8341,-0.4628 1.9679,0.2437 4.1447,1.4746 6.217,2.212 2.0724,0.7373 4.5375,1.1579 6.2171,2.212 1.4409,0.9043 2.8795,2.8434 3.4554,3.4121 -0.8057,0.0771 -3.1458,0.6718 -4.834,0.4628 -1.968,-0.2437 -4.1448,-1.4747 -6.2171,-2.212 -2.0724,-0.7374 -4.5375,-1.1579 -6.2171,-2.212 -1.4409,-0.9043 -2.8795,-2.8434 -3.4554,-3.4121 z"
         style="fill:#003f7d;fill-opacity:1;fill-rule:evenodd"
         id="path895" />
      <path
         d="m -604.6347,-555.6626 c -4.4691,5.1404 -8.153,10.952 -10.7992,17.2849 -0.0193,0.0425 -0.0349,0.0774 -0.0473,0.1048 -3.5691,7.7128 -5.5177,15.9778 -5.9874,24.344 -0.4714,8.3877 0.5457,16.8624 2.8959,24.9616 2.359,8.1278 6.0545,15.8559 10.9162,22.7276 4.885,6.9052 10.9352,12.932 17.9782,17.6488 0.0323,0.0241 0.059,0.0431 0.0811,0.0587 7.2606,5.2599 15.3921,8.9699 23.8977,11.2014 8.5734,2.2498 17.5176,2.9942 26.3328,2.3173 17.9257,-1.3774 35.1351,-8.6032 47.9137,-20.8279 0.0258,-0.0223 0.0459,-0.0413 0.0638,-0.0572 7.0537,-6.2966 12.7091,-13.8084 16.9429,-21.9952 4.2965,-8.3069 7.128,-17.3046 8.4929,-26.4594 2.2796,-15.298 0.4598,-30.8852 -5.3079,-44.7128 1.7348,0.4303 3.4617,0.8691 5.1821,1.3152 5.1885,13.807 6.7444,29.0699 4.57,44.0507 -1.3975,9.627 -4.3382,19.1194 -8.8402,27.9142 -4.4316,8.6581 -10.3801,16.647 -17.8486,23.3784 -13.5686,13.0899 -31.8041,20.8245 -50.7705,22.3815 -9.3432,0.7668 -18.8597,0.0307 -28.023,-2.3193 -9.0754,-2.3286 -17.8118,-6.243 -25.6575,-11.8525 -7.6263,-5.0499 -14.1696,-11.5007 -19.4522,-18.8742 -5.2645,-7.3474 -9.2772,-15.6109 -11.8599,-24.3119 -2.5733,-8.6689 -3.7295,-17.7811 -3.2765,-26.8495 0.451,-9.0272 2.4979,-18.0164 6.3309,-26.4566 1.9638,-4.7769 4.4606,-9.2783 7.3964,-13.4523 2.994,-0.5542 5.9474,-1.0545 8.8756,-1.5203 z"
         style="fill:#003f7d;fill-opacity:1;fill-rule:evenodd"
         id="path897" />
      <path
         d="m -549.0836,-476.3072 c 1.4054,-0.0352 6.9364,-0.7929 13.0762,-3.1329 0.8991,-0.3421 1.8867,-0.7517 2.9412,-1.2458 3.6564,-1.7161 8.3296,-4.5771 12.7114,-9.3696 3.1632,-3.4594 6.1994,-7.981 8.1513,-13.4334 1.6246,-4.5422 2.5056,-9.7861 1.8743,-15.3267 -0.0113,-0.0436 -0.0153,-0.1227 -0.0187,-0.2199 -0.2787,-5.639 -1.9162,-11.2607 -4.9346,-16.4968 -2.7538,-4.7778 -6.6483,-9.212 -11.5279,-12.8478 -4.5238,-3.3704 -9.8714,-6.0244 -15.6722,-7.4789 -5.4561,-1.368 -11.3241,-1.6764 -17.1743,-0.4861 -0.064,0.0139 -0.1363,0.0263 -0.214,0.0374 -5.8141,0.8558 -11.3944,2.9868 -16.482,6.2507 -4.8716,3.1243 -9.2622,7.2725 -12.85,12.2144 -3.4535,4.756 -6.1385,10.2192 -7.7273,16.0697 -1.5375,5.6571 -2.0443,11.6651 -1.2155,17.6675 0.006,0.0643 0.0122,0.125 0.0176,0.1825 0.5888,6.4066 2.5546,12.5963 5.6951,18.294 3.0631,5.5584 7.2326,10.6242 12.2491,14.8765 4.9048,4.1575 10.5939,7.5132 16.7468,9.7412 6.0307,2.1844 12.4942,3.2794 19.0496,2.9772 0.0681,0.003 0.1256,0.003 0.1746,0.003 6.9747,-0.0247 13.828,-1.5183 20.2533,-4.2687 6.3306,-2.7097 12.2236,-6.6305 17.3342,-11.4999 5.0425,-4.805 9.2999,-10.512 12.4253,-16.8148 3.0881,-6.2295 5.0638,-13.0258 5.5953,-20.0722 0.007,-0.0564 0.0114,-0.1065 0.0168,-0.1474 0.8662,-7.4454 0.1737,-14.9332 -1.8641,-22.1147 -2.0202,-7.1238 -5.3603,-13.9258 -9.7741,-20.026 -0.6194,-0.856 -1.2595,-1.6976 -1.9197,-2.5239 3.2888,0.5431 6.5503,1.1199 9.773,1.7436 3.8067,5.8342 6.7658,12.1991 8.7001,18.8589 2.3168,7.9747 3.1638,16.3709 2.2431,24.7898 -0.563,8.0178 -2.7618,15.7127 -6.1883,22.7293 -3.4742,7.1153 -8.2162,13.5468 -13.8405,18.9675 -5.6999,5.493 -12.3182,9.9612 -19.4958,13.0773 -7.2624,3.1544 -15.0897,4.9224 -23.1299,4.991 -7.6186,0.3787 -15.0789,-0.8654 -21.9872,-3.3324 -7.0679,-2.5234 -13.5822,-6.3332 -19.1959,-11.056 -5.7413,-4.8291 -10.5574,-10.6248 -14.1236,-17.0509 -3.6448,-6.5674 -5.9763,-13.7764 -6.6974,-21.3081 -0.9876,-7.1325 -0.3841,-14.195 1.4008,-20.7893 1.8496,-6.8334 4.9723,-13.1805 8.9785,-18.6922 4.1627,-5.7285 9.2888,-10.5727 15.0364,-14.241 1.1837,-0.7554 2.3927,-1.4601 3.6243,-2.1129 17.0969,-1.2872 33.0897,-1.1106 48.2556,0.1227 2.3406,1.2796 4.5502,2.7199 6.6067,4.286 5.6577,4.3078 10.1949,9.5876 13.3841,15.3173 3.5005,6.2892 5.3462,13.0391 5.5568,19.817 0.5839,6.7592 -0.6877,12.9994 -2.7695,18.2381 -2.518,6.3366 -6.283,11.4217 -10.1188,15.1813 -5.3314,5.2245 -10.9145,8.0631 -15.2541,9.5136 -1.2489,0.4181 -2.4123,0.7276 -3.4673,0.9553 -4.0615,0.8773 -7.2975,0.6712 -9.4224,0.3438 -2.0803,-0.3212 -3.7984,-0.8878 -4.8064,-1.1585 z"
         style="fill:#003f7d;fill-opacity:1;fill-rule:evenodd"
         id="path899" />
    </g>
  </g>
</svg>
