<?xml version="1.0" encoding="UTF-8" standalone="no"?>
<svg
   xmlns:dc="http://purl.org/dc/elements/1.1/"
   xmlns:cc="http://creativecommons.org/ns#"
   xmlns:rdf="http://www.w3.org/1999/02/22-rdf-syntax-ns#"
   xmlns:svg="http://www.w3.org/2000/svg"
   xmlns="http://www.w3.org/2000/svg"
   xmlns:sodipodi="http://sodipodi.sourceforge.net/DTD/sodipodi-0.dtd"
   xmlns:inkscape="http://www.inkscape.org/namespaces/inkscape"
   width="1087.7007mm"
   height="740.8996mm"
   viewBox="-277.0587 -360.6384 1087.7007 740.89959"
   version="1.1"
   style="fill:none;stroke-linecap:round;stroke-linejoin:round"
   id="svg2683"
   sodipodi:docname="logo.svg"
   inkscape:version="1.0.1 (3bc2e813f5, 2020-09-07)"
   inkscape:export-filename="G:\temp\logo.png"
   inkscape:export-xdpi="96"
   inkscape:export-ydpi="96">
  <metadata
     id="metadata2689">
    <rdf:RDF>
      <cc:Work
         rdf:about="">
        <dc:format>image/svg+xml</dc:format>
        <dc:type
           rdf:resource="http://purl.org/dc/dcmitype/StillImage" />
        <dc:title></dc:title>
      </cc:Work>
    </rdf:RDF>
  </metadata>
  <defs
     id="defs2687">
    <inkscape:path-effect
       effect="powerstroke"
       id="path-effect2716"
       is_visible="true"
       lpeversion="1"
       offset_points="0.2,0.125 | 0.5,0.125 | 0.8,0.125"
       sort_points="true"
       interpolator_type="CentripetalCatmullRom"
       interpolator_beta="0.2"
       start_linecap_type="zerowidth"
       linejoin_type="round"
       miter_limit="4"
       scale_width="28"
       end_linecap_type="zerowidth" />
    <inkscape:path-effect
       effect="powerstroke"
       id="path-effect2714"
       is_visible="true"
       lpeversion="1"
       offset_points="0.2,0.125 | 0.5,0.125 | 0.8,0.125"
       sort_points="true"
       interpolator_type="CentripetalCatmullRom"
       interpolator_beta="0.2"
       start_linecap_type="zerowidth"
       linejoin_type="round"
       miter_limit="4"
       scale_width="28"
       end_linecap_type="zerowidth" />
    <inkscape:path-effect
       effect="powerstroke"
       id="path-effect2712"
       is_visible="true"
       lpeversion="1"
       offset_points="0.2,0.125 | 0.5,0.125 | 0.8,0.125"
       sort_points="true"
       interpolator_type="CentripetalCatmullRom"
       interpolator_beta="0.2"
       start_linecap_type="zerowidth"
       linejoin_type="round"
       miter_limit="4"
       scale_width="28"
       end_linecap_type="zerowidth" />
    <inkscape:path-effect
       effect="powerstroke"
       id="path-effect2710"
       is_visible="true"
       lpeversion="1"
       offset_points="0.2,0.125 | 0.5,0.125 | 0.8,0.125"
       sort_points="true"
       interpolator_type="CentripetalCatmullRom"
       interpolator_beta="0.2"
       start_linecap_type="zerowidth"
       linejoin_type="round"
       miter_limit="4"
       scale_width="28"
       end_linecap_type="zerowidth" />
    <inkscape:path-effect
       effect="powerstroke"
       id="path-effect2708"
       is_visible="true"
       lpeversion="1"
       offset_points="0.2,0.125 | 0.5,0.125 | 0.8,0.125"
       sort_points="true"
       interpolator_type="CentripetalCatmullRom"
       interpolator_beta="0.2"
       start_linecap_type="zerowidth"
       linejoin_type="round"
       miter_limit="4"
       scale_width="28"
       end_linecap_type="zerowidth" />
    <inkscape:path-effect
       effect="powerstroke"
       id="path-effect2706"
       is_visible="true"
       lpeversion="1"
       offset_points="0.2,0.125 | 0.5,0.125 | 0.8,0.125"
       sort_points="true"
       interpolator_type="CentripetalCatmullRom"
       interpolator_beta="0.2"
       start_linecap_type="zerowidth"
       linejoin_type="round"
       miter_limit="4"
       scale_width="28"
       end_linecap_type="zerowidth" />
    <inkscape:path-effect
       effect="powerstroke"
       id="path-effect2704"
       is_visible="true"
       lpeversion="1"
       offset_points="0.2,0.125 | 0.5,0.125 | 0.8,0.125"
       sort_points="true"
       interpolator_type="CentripetalCatmullRom"
       interpolator_beta="0.2"
       start_linecap_type="zerowidth"
       linejoin_type="round"
       miter_limit="4"
       scale_width="28"
       end_linecap_type="zerowidth" />
    <inkscape:path-effect
       effect="powerstroke"
       id="path-effect2702"
       is_visible="true"
       lpeversion="1"
       offset_points="0.2,0.125 | 0.5,0.125 | 0.8,0.125"
       sort_points="true"
       interpolator_type="CentripetalCatmullRom"
       interpolator_beta="0.2"
       start_linecap_type="zerowidth"
       linejoin_type="round"
       miter_limit="4"
       scale_width="28"
       end_linecap_type="zerowidth" />
    <inkscape:path-effect
       effect="powerstroke"
       id="path-effect2700"
       is_visible="true"
       lpeversion="1"
       offset_points="0.2,0.125 | 0.5,0.125 | 0.8,0.125"
       sort_points="true"
       interpolator_type="CentripetalCatmullRom"
       interpolator_beta="0.2"
       start_linecap_type="zerowidth"
       linejoin_type="round"
       miter_limit="4"
       scale_width="28"
       end_linecap_type="zerowidth" />
    <inkscape:path-effect
       effect="powerstroke"
       id="path-effect2698"
       is_visible="true"
       lpeversion="1"
       offset_points="0.2,0.125 | 0.5,0.125 | 0.8,0.125"
       sort_points="true"
       interpolator_type="CentripetalCatmullRom"
       interpolator_beta="0.2"
       start_linecap_type="zerowidth"
       linejoin_type="round"
       miter_limit="4"
       scale_width="28"
       end_linecap_type="zerowidth" />
    <inkscape:path-effect
       effect="powerstroke"
       id="path-effect2696"
       is_visible="true"
       lpeversion="1"
       offset_points="0.2,0.125 | 2,0.125 | 3.8,0.125"
       sort_points="true"
       interpolator_type="CentripetalCatmullRom"
       interpolator_beta="0.2"
       start_linecap_type="zerowidth"
       linejoin_type="round"
       miter_limit="4"
       scale_width="28"
       end_linecap_type="zerowidth" />
    <inkscape:path-effect
       effect="powerstroke"
       id="path-effect2694"
       is_visible="true"
       lpeversion="1"
       offset_points="0.2,0.125 | 11,0.125 | 21.8,0.125"
       sort_points="true"
       interpolator_type="CentripetalCatmullRom"
       interpolator_beta="0.2"
       start_linecap_type="zerowidth"
       linejoin_type="round"
       miter_limit="4"
       scale_width="28"
       end_linecap_type="zerowidth" />
  </defs>
  <sodipodi:namedview
     pagecolor="#ffffff"
     bordercolor="#666666"
     borderopacity="1"
     objecttolerance="10"
     gridtolerance="10"
     guidetolerance="10"
     inkscape:pageopacity="0"
     inkscape:pageshadow="2"
     inkscape:window-width="3840"
     inkscape:window-height="2081"
     id="namedview2685"
     showgrid="false"
     inkscape:zoom="0.34073208"
     inkscape:cx="2295.9396"
     inkscape:cy="1523.1209"
     inkscape:window-x="-9"
     inkscape:window-y="-9"
     inkscape:window-maximized="1"
     inkscape:current-layer="svg2683"
     fit-margin-top="0"
     fit-margin-left="0"
     fit-margin-right="0"
     fit-margin-bottom="0" />
  <g
     transform="matrix(0,1,1,0,246.30216,-83.5797)"
     id="g2681">
    <!-- Spline -->
    <path
       id="path2655"
       style="fill:#000000;fill-rule:nonzero;stroke:none;stroke-width:0.25"
       d="m 62.5,0 c -0.05991,2.3916887 -1.350742,11.805275 -5.332835,22.255315 -0.583203,1.530476 -1.278873,3.212015 -2.120692,5.00646 -2.919359,6.222983 -7.789388,14.176797 -15.945876,21.63375 -5.888928,5.383869 -13.58306,10.55219 -22.864498,13.873142 C 8.5065462,65.534346 -0.419,67.033265 -9.8492745,65.958838 A 0.74413791,0.02663152 1.9422303 0 0 -10.222687,65.93278 C -19.820288,65.452842 -29.38915,62.665926 -38.300202,57.528949 -46.431067,52.841728 -53.979136,46.213536 -60.166827,37.908345 -65.902959,30.209244 -70.419756,21.10844 -72.895234,11.235281 -75.223735,1.9483248 -75.748531,-8.038392 -73.723183,-17.995177 a 0.44263963,2.8740516 1.044897 0 0 0.06277,-0.363402 c 1.456251,-9.896141 5.083231,-19.393958 10.637013,-28.052808 5.317928,-8.291133 12.378275,-15.76419 20.788834,-21.870283 8.095645,-5.877465 17.393913,-10.447391 27.350883,-13.152289 9.6286818,-2.615716 19.8537478,-3.478995 30.069438,-2.068036 a 4.0046007,0.88905398 19.138903 0 0 0.309163,0.03589 c 10.904094,1.002473 21.437596,4.348194 31.135893,9.692992 9.459708,5.213309 18.082313,12.309698 25.319261,20.847458 7.075873,8.347734 12.786851,18.030552 16.579345,28.503124 3.716978,10.264042 5.581356,21.2645812 5.067409,32.4212231 a 0.15253886,1.6930419 6.6784683 0 0 -0.0077,0.2887239 C 93.563519,20.160812 91.020672,31.824815 86.340253,42.760515 81.728713,53.53525 75.055368,63.564913 66.767631,72.262815 58.590108,80.845048 48.876257,88.090791 38.148869,93.409914 27.547475,98.66655 15.979034,102.02933 3.987015,102.93366 a 0.07116783,1.1314377 88.298886 0 0 -0.2512087,0.0233 C -8.9361923,104.43636 -21.680288,103.25761 -33.902565,99.790344 -46.027232,96.350771 -57.604403,90.666815 -67.986682,83.154777 -78.297448,75.694481 -87.390502,66.458262 -94.618076,55.917217 -101.80474,45.435813 -107.13177,33.686142 -109.97778,21.15034 a 0.93460736,0.05264928 79.486199 0 0 -0.0534,-0.218453 c -3.54489,-13.1595498 -4.3346,-26.7787465 -2.69371,-40.178335 1.63668,-13.365317 5.68907,-26.483156 11.80144,-38.63506 6.103098,-12.133445 14.241004,-23.265546 24.017765,-32.683203 9.770594,-9.411716 21.162678,-17.095319 33.768134,-22.362529 a 0.03992573,0.77408242 69.38851 0 0 0.174966,-0.0763 c 13.127024,-6.07354 27.193823,-9.39038 41.4328283,-10.18989 14.2746537,-0.8015 28.6991497,0.92856 42.4830937,4.9288 13.834147,4.01482 26.986384,10.30533 38.682024,18.579034 11.752534,8.313956 22.009449,18.611772 30.037639,30.598177 a 0.73976878,0.04127179 58.495388 0 0 0.0948,0.136969 c 8.9516,12.357261 15.26651,26.197084 19.06457,40.673612 3.82826,14.591651 5.09582,29.8142629 3.94322,44.817295 -2.34383,30.508957 -14.64212,59.799004 -35.448542,81.547698 a 0.04601784,0.73314474 46.46184 0 0 -0.0956,0.102984 C 86.5174,110.19983 73.732763,119.8251 59.799324,127.0314 c -14.138672,7.31245 -29.452337,12.13171 -45.033718,14.45404 -32.061262,4.7786 -64.867358,-1.02262 -91.910784,-16.92251 a 1.0345669,0.10372609 35.275488 0 0 -0.109698,-0.0622 c -14.84157,-8.05194 -27.710144,-18.73149 -38.388484,-31.056948 -10.94154,-12.629252 -19.58843,-26.987815 -25.78527,-42.124893 -12.98661,-31.722524 -15.09478,-66.358678 -6.10192,-97.379525 a 3.5,3.5 60.207222 0 0 0.0301,-0.110747 c 8.30625,-32.61589 28.55306,-62.238667 56.992908,-83.667497 26.791793,-20.18705 60.673589,-32.82263 96.0846055,-32.22869 a 0.09486236,0.98810646 84.471733 0 0 0.1183102,-9e-5 c 35.2914683,-0.55173 70.3480323,11.76685 99.2685663,33.82864 27.90919,21.2903 49.82023,51.525195 59.31466,86.544178 a 0.67483102,0.03926411 70.497933 0 0 0.0346,0.119468 c 10.69897,35.1184008 8.4836,73.420542 -4.75113,108.228049 -12.97491,34.124175 -36.46908,64.591805 -67.980378,84.342365 a 0.03198449,0.64810166 54.084121 0 0 -0.115706,0.0754 c -31.589084,21.17607 -70.000557,30.47557 -108.05617,28.1298 -37.767757,-2.32805 -74.872656,-16.12099 -103.951896,-40.72543 a 0.64852636,0.02837894 36.74814 0 0 -0.11509,-0.094 c -30.79321,-24.53623 -51.92981,-59.360095 -61.66384,-97.214215 -9.76723,-37.9833438 -7.98034,-78.698808 6.66741,-114.903567 a 0.0353433,0.76012169 18.391542 0 0 0.0592,-0.15373 c 14.13854,-38.139088 41.35676,-69.974138 74.9051,-91.710638 34.049215,-22.06102 74.312448,-33.55936 114.18754,-31.34239 a 0.0344592,0.78597179 89.786267 0 0 0.165123,0.007 c 39.463958,1.13098 77.224917,15.26593 108.330317,37.7747 31.99683,23.15383 56.72845,54.94671 70.1137,90.823298 a 1.2516659,0.00110434 69.061066 0 0 0.0277,0.07259 c 8.72539,22.80939 12.98523,46.157429 13.55334,68.45378232 a 0.17842253,0.00159657 87.624683 0 0 0.002,0.0684988 C 206.5083,22.677023 204.53642,44.506486 199.82403,64.913987 194.74036,86.929309 186.56184,106.91865 175.56984,124.46338 a 7.0662973e-4,0.33391148 32.101445 0 0 -0.0266,0.0426 c -14.60002,23.67061 -33.01664,44.29522 -50.27004,62.38783 -22.79273,23.9014 -37.851148,37.9762 -56.557155,59.36267 l 0.05092,-0.0565 C 37.109514,281.67473 17.860787,312.42855 9.949925,326.93697 3.2541451,339.21694 1.2902761,346.81382 0,350 c 2.576671,-3.28506 7.1741044,-7.63785 15.846769,-19.29113 9.336143,-12.54479 30.574431,-42.82379 61.85636,-76.35721 a 6.4512625e-4,0.33105745 42.123108 0 0 0.051,-0.0566 c 16.309558,-18.02663 36.115556,-36.85219 56.944446,-58.33841 17.55675,-18.11081 36.88959,-39.4448 52.35351,-64.32387 l -0.0266,0.0426 c 11.93653,-18.87527 20.71967,-40.286166 26.13356,-63.678528 5.01401,-21.664605 7.05669,-44.705479 6.15112,-68.22953634 C 218.61277,-23.977803 213.8816,-48.815708 204.3594,-72.99084 c -14.45723,-38.36607 -40.94816,-72.07217 -74.93474,-96.48056 -33.042669,-23.73049 -73.227766,-38.65485 -115.364948,-39.70999 -42.629145,-2.18344 -85.301917,10.28793 -121.158682,33.73361 -35.34828,23.11319 -64.10499,56.94942 -78.99807,97.615643 -15.41166,38.647499 -17.01387,81.7504988 -6.55002,121.67989 10.43548,39.821024 32.88994,76.533917 65.65748,102.418557 30.991571,25.94584 70.213905,40.22317 109.833886,42.47951 39.950367,2.27513 80.341835,-7.65155 113.616722,-30.1556 33.193562,-21.04055 57.666242,-53.2062 71.071502,-88.92719 13.68337,-36.462049 15.88503,-76.6331354 4.49642,-113.548931 -10.15937,-36.82287 -33.27799,-68.352239 -62.43861,-90.439769 -30.235991,-22.90205 -66.921054,-35.71731 -103.9645505,-35.05602 -37.1904165,-0.50846 -72.5498905,12.83188 -100.4023975,33.88632 -29.579442,22.35987 -50.759412,53.30302 -59.493102,87.540851 -9.43554,32.597594 -7.17505,68.932719 6.28046,101.952884 6.44858,15.825012 15.46384,30.872394 26.90968,44.144171 11.15808,12.938104 24.648781,24.209824 40.267881,32.749464 28.527671,16.86693 63.02635,23.04313 96.689508,18.15741 16.385278,-2.37809 32.539763,-7.38309 47.508664,-15.04534 14.736219,-7.54314 28.332265,-17.66679 39.789237,-30.37837 22.27888,-23.093157 35.44289,-54.130131 38.09298,-86.409726 1.30551,-15.9019028 0.053,-32.098741 -3.94785,-47.694307 -3.96253,-15.446324 -10.6258,-30.315535 -20.17139,-43.668879 -8.59605,-12.980292 -19.57431,-24.115948 -32.124187,-33.107508 -12.504224,-8.95885 -26.569109,-15.78902 -41.377704,-20.18483 -14.75405,-4.3796 -30.263799,-6.3473 -45.6971589,-5.57662 -15.3641081,0.76722 -30.6639151,4.25115 -45.0290081,10.7747 -13.840425,5.68966 -26.320567,14.00555 -37.010302,24.168505 -10.708994,10.181263 -19.63107,22.223634 -26.34896,35.365018 -6.72776,13.160721 -11.25514,27.443629 -13.14587,42.094282 -1.89102,14.6528696 -1.14455,29.6761471 2.67842,44.301282 3.09258,13.99669 8.93416,27.068185 16.7914,38.691918 7.915919,11.710508 17.886962,21.967454 29.207893,30.270481 11.398884,8.360204 24.187595,14.756074 37.689146,18.677904 13.573313,3.94268 27.8629603,5.38402 42.1914935,3.81694 C 18.620473,114.18742 31.717742,110.44497 43.659348,104.6137 55.768395,98.700654 66.716055,90.629111 75.941424,81.056825 85.291036,71.355624 92.894509,60.091719 98.199432,47.875805 103.56729,35.514945 106.57685,22.193272 106.693,8.5086342 107.33763,-4.4575657 105.22041,-17.15444 101.02192,-28.912653 96.726604,-40.942044 90.24224,-52.029171 82.205583,-61.583236 73.985416,-71.355461 64.12139,-79.552118 53.185129,-85.621489 42.007417,-91.824859 29.737421,-95.79317 16.918459,-97.020375 c -12.1387005,-1.680965 -24.1596971,-0.653361 -35.381594,2.383957 -11.631099,3.148074 -22.434054,8.463183 -31.81538,15.281302 -9.748613,7.085053 -17.993812,15.809529 -24.237454,25.592017 -6.499726,10.183717 -10.801241,21.459429 -12.517316,33.296585 -2.373554,12.1006763 -1.626064,24.0666441 1.197216,34.999181 3.019013,11.690473 8.428275,22.31607 15.227969,31.246639 7.331306,9.628777 16.317736,17.351501 26.069409,22.77908 10.704889,5.95812 22.191374,9.099381 33.728206,9.457394 C 0.69344995,79.010415 11.31446,76.846384 20.22996,73.30314 31.014482,69.0171 39.669155,62.609108 46.067185,56.08074 54.960306,47.006454 59.791602,37.504618 62.260749,30.118853 c 0.71077,-2.126071 1.238102,-4.10619 1.625894,-5.901744 C 65.379439,17.305159 65.02927,11.797021 64.471056,8.1805193 63.924555,4.6399054 62.960773,1.7154557 62.5,0 Z"
       sodipodi:nodetypes="ccccccccccccccccccccccc"
       inkscape:path-effect="#path-effect2694"
       inkscape:original-d="m 62.5,0 c 4.772447,40.023182 -33.56314,75.953143 -72.956791,71.976086 -44.615555,-1.72838 -78.565524,-48.18944 -69.902146,-91.304623 6.456935,-44.591432 52.321142,-77.074036 96.484837,-70.922363 48.17986,4.480723 86.35336,50.653526 84.01577,98.5688875 C 99.900806,59.943497 55.521678,105.36236 4.4271,109.043 -49.903522,115.21337 -103.61187,75.387741 -115.45172,22.372838 -130.26901,-33.366448 -98.038373,-95.677403 -45.0712,-117.5995 9.9343736,-142.83584 80.080466,-121.70725 113.43071,-71.587875 150.36085,-20.298667 143.81127,55.543548 100.23016,100.87892 56.149686,150.05824 -22.367408,161.12435 -79.003361,127.71272 -139.32348,94.876657 -169.9352,18.653834 -150.89214,-47.035143 -133.31818,-116.04229 -65.307874,-166.81681 5.6334323,-165.72418 79.345648,-166.97375 148.79458,-113.61891 168.16312,-42.756569 190.50712,30.068739 158.23547,114.33312 93.987922,154.81385 28.798224,198.73042 -63.855471,192.81209 -123.79875,142.34295 -187.37333,91.930178 -211.03187,-0.74941992 -180.85771,-75.828566 -151.98546,-154.24909 -69.38832,-207.52021 13.826305,-203.06014 94.553066,-200.91287 169.98167,-146.03248 198.24317,-70.639127 206.98385,-48.136992 211.83664,-24.1324 212.5,0 214.16846,44.437642 205.20973,90.087031 181.29766,128.06937 152.42937,174.68798 109.35542,209.66423 73.235076,250.27577 45.379452,280.81196 20.718852,314.22594 0,350" />
    <!-- Spline -->
    <path
       id="path2657"
       style="stroke:#000000;stroke-width:0.25"
       d="M 0,350 C 20.718852,314.22594 45.379452,280.81196 73.235076,250.27577 109.35542,209.66423 152.42937,174.68798 181.29766,128.06937 205.20973,90.087031 214.16846,44.437642 212.5,0 214.16846,44.437642 205.20973,90.087031 181.29766,128.06937 152.42937,174.68798 109.35542,209.66423 73.235076,250.27577 45.379452,280.81196 20.718852,314.22594 0,350 m 0,0 C 20.718852,314.22594 45.379452,280.81196 73.235076,250.27577 109.35542,209.66423 152.42937,174.68798 181.29766,128.06937 205.20973,90.087031 214.16846,44.437642 212.5,0 214.16846,44.437642 205.20973,90.087031 181.29766,128.06937 152.42937,174.68798 109.35542,209.66423 73.235076,250.27577 45.379452,280.81196 20.718852,314.22594 0,350"
       sodipodi:nodetypes="cccccccccccccc" />
    <!-- Spline -->
    <path
       id="path2659"
       style="fill:#000000;fill-rule:nonzero;stroke:none;stroke-width:0.25"
       d="m 0,350 c -7.1572726,-6.55009 -20.967804,-20.25601 -42.292368,-40.20338 -14.187527,-13.27127 -38.121495,-35.49847 -62.148382,-61.33563 -28.50477,-30.65243 -60.1828,-69.44996 -85.69571,-116.17624 a 0.3474071,5.373896e-4 61.39296 0 0 -0.006,-0.0108 c -15.43212,-27.96774 -26.98131,-59.038797 -32.59928,-91.411074 -5.96894,-34.3946663 -4.69792,-67.048919 2.58338,-96.593856 a 3.5,3.5000001 58.617784 0 0 0.007,-0.02686 c 9.05356,-38.026048 26.14963,-75.32939 51.09715,-112.67091 23.35226,-34.95372 51.48607,-66.82131 80.061657,-95.84654 l -0.01596,0.0163 c 29.899109,-29.81929 58.563296,-54.31397 72.096407,-67.35523 C -7.9861139,-340.21622 -2.8515301,-346.95906 0,-350 c -3.470125,2.06479 -11.398641,5.78162 -21.402035,13.01507 -15.491344,11.20179 -44.084312,35.67066 -73.970714,66.44678 a 6.292829e-4,0.21294344 44.300551 0 0 -0.01596,0.0162 c -28.573975,29.48917 -56.742475,62.0774 -80.134745,97.81563 -25.01643,38.21959 -42.15918,76.363012 -51.43474,115.31369 -7.51321,30.49386 -9.14963,64.0671241 -3.43239,99.534895 5.37804,33.363431 16.8131,65.480435 32.39872,94.410745 l -0.006,-0.0108 c 25.70466,47.84313 57.78838,87.38115 86.87035,118.18434 24.860505,26.33188 48.793544,47.54076 64.208343,60.32298 C -25.307885,332.96996 -6.8111464,345.12913 0,350 Z"
       inkscape:path-effect="#path-effect2696"
       inkscape:original-d="M 0,350 C -75.245085,289.03135 -147.49003,220.41434 -194.0671,134.4135 -225.50418,76.746142 -239.4642,7.9790987 -223.55656,-56.5685 c 19.59854,-82.31618 73.32635,-151.40452 131.365746,-210.8301 C -63.191058,-296.78986 -32.170274,-324.13695 0,-350 M 0,350 C -75.245085,289.03135 -147.49003,220.41434 -194.0671,134.4135 -225.50418,76.746142 -239.4642,7.9790987 -223.55656,-56.5685 c 19.59854,-82.31618 73.32635,-151.40452 131.365746,-210.8301 C -63.191058,-296.78986 -32.170274,-324.13695 0,-350 M 0,350 C -75.245085,289.03135 -147.49003,220.41434 -194.0671,134.4135 -225.50418,76.746142 -239.4642,7.9790987 -223.55656,-56.5685 c 19.59854,-82.31618 73.32635,-151.40452 131.365746,-210.8301 C -63.191058,-296.78986 -32.170274,-324.13695 0,-350 M 0,350 C -75.245085,289.03135 -147.49003,220.41434 -194.0671,134.4135 -225.50418,76.746142 -239.4642,7.9790987 -223.55656,-56.5685 c 19.59854,-82.31618 73.32635,-151.40452 131.365746,-210.8301 C -63.191058,-296.78986 -32.170274,-324.13695 0,-350 M 0,350 C -75.245085,289.03135 -147.49003,220.41434 -194.0671,134.4135 -225.50418,76.746142 -239.4642,7.9790987 -223.55656,-56.5685 c 19.59854,-82.31618 73.32635,-151.40452 131.365746,-210.8301 C -63.191058,-296.78986 -32.170274,-324.13695 0,-350 M 0,350 C -75.245085,289.03135 -147.49003,220.41434 -194.0671,134.4135 -225.50418,76.746142 -239.4642,7.9790987 -223.55656,-56.5685 c 19.59854,-82.31618 73.32635,-151.40452 131.365746,-210.8301 C -63.191058,-296.78986 -32.170274,-324.13695 0,-350 M 0,350 C -75.245085,289.03135 -147.49003,220.41434 -194.0671,134.4135 -225.50418,76.746142 -239.4642,7.9790987 -223.55656,-56.5685 c 19.59854,-82.31618 73.32635,-151.40452 131.365746,-210.8301 C -63.191058,-296.78986 -32.170274,-324.13695 0,-350 M 0,350 C -75.245085,289.03135 -147.49003,220.41434 -194.0671,134.4135 -225.50418,76.746142 -239.4642,7.9790987 -223.55656,-56.5685 c 19.59854,-82.31618 73.32635,-151.40452 131.365746,-210.8301 C -63.191058,-296.78986 -32.170274,-324.13695 0,-350 M 0,350 C -75.245085,289.03135 -147.49003,220.41434 -194.0671,134.4135 -225.50418,76.746142 -239.4642,7.9790987 -223.55656,-56.5685 c 19.59854,-82.31618 73.32635,-151.40452 131.365746,-210.8301 C -63.191058,-296.78986 -32.170274,-324.13695 0,-350 M 0,350 C -75.245085,289.03135 -147.49003,220.41434 -194.0671,134.4135 -225.50418,76.746142 -239.4642,7.9790987 -223.55656,-56.5685 c 19.59854,-82.31618 73.32635,-151.40452 131.365746,-210.8301 C -63.191058,-296.78986 -32.170274,-324.13695 0,-350" />
    <!-- Line -->
    <path
       d="m -109.3083,105.1552 c 1.30395,-0.4495 5.35248,-1.18086 7.8237,-2.69702 2.881095,-1.76764 5.390616,-5.213003 8.085926,-7.819503 2.69531,-2.6065 6.222788,-4.999219 8.08593,-7.8195 1.598078,-2.419046 2.46462,-6.440814 2.957544,-7.728977 -1.303949,0.449504 -5.352484,1.180861 -7.823696,2.697023 -2.881099,1.767639 -5.39062,5.213 -8.08593,7.8195 -2.695314,2.6065 -6.222784,4.999219 -8.085934,7.8195 -1.59807,2.419046 -2.46462,6.440817 -2.95754,7.728977 z"
       style="fill:#000000;fill-rule:nonzero;stroke:none;stroke-width:0.25"
       id="path2661"
       inkscape:path-effect="#path-effect2714"
       inkscape:original-d="m -109.3083,105.1552 26.9531,-26.065" />
    <!-- Line -->
    <path
       d="m 95.2552,-92.6682 c 1.303983,-0.449537 5.35261,-1.180992 7.8239,-2.697224 2.88119,-1.767729 5.39082,-5.213196 8.08623,-7.819796 2.69541,-2.6066 6.223,-4.99943 8.08623,-7.8198 1.59815,-2.41912 2.46478,-6.44098 2.95774,-7.72918 -1.30398,0.44954 -5.35261,1.18099 -7.8239,2.69722 -2.88119,1.76773 -5.39082,5.2132 -8.08623,7.8198 -2.69541,2.6066 -6.223,4.99943 -8.086228,7.8198 -1.598148,2.419123 -2.464785,6.440984 -2.957742,7.72918 z"
       style="fill:#000000;fill-rule:nonzero;stroke:none;stroke-width:0.25"
       id="path2663"
       inkscape:path-effect="#path-effect2708"
       inkscape:original-d="m 95.2552,-92.6682 26.9541,-26.066" />
    <!-- Line -->
    <path
       d="m -104.6077,-170.2671 c 0.13752,1.37329 -0.082,5.48384 0.82514,8.23971 1.05768,3.2132 3.833957,6.4517 5.750937,9.67755 1.91698,3.22585 3.434286,7.2125 5.75094,9.67755 1.986927,2.11421 5.702319,3.88641 6.842783,4.66369 -0.137523,-1.37329 0.08201,-5.48384 -0.825137,-8.23971 -1.057683,-3.2132 -3.83396,-6.4517 -5.75094,-9.67755 -1.91698,-3.22585 -3.434286,-7.2125 -5.75094,-9.67755 -1.986927,-2.11421 -5.702323,-3.88641 -6.842783,-4.66369 z"
       style="fill:#000000;fill-rule:nonzero;stroke:none;stroke-width:0.25"
       id="path2665"
       inkscape:path-effect="#path-effect2716"
       inkscape:original-d="m -104.6077,-170.2671 19.1698,32.2585" />
    <!-- Line -->
    <path
       d="m -66.2567,-105.7312 c 0.13834,1.37466 -0.07883,5.48911 0.83004,8.247936 1.059814,3.217017 3.83886,6.45992 5.75829,9.68988 1.91943,3.22996 3.439297,7.22114 5.75829,9.68988 1.988708,2.117127 5.7064,3.893253 6.84768,4.671904 -0.13834,-1.374656 0.07883,-5.489105 -0.83004,-8.247936 -1.059814,-3.217017 -3.83886,-6.45992 -5.75829,-9.68988 -1.91943,-3.22996 -3.439297,-7.22114 -5.75829,-9.689884 -1.988708,-2.11712 -5.7064,-3.89325 -6.84768,-4.6719 z"
       style="fill:#000000;fill-rule:nonzero;stroke:none;stroke-width:0.25"
       id="path2667"
       inkscape:path-effect="#path-effect2712"
       inkscape:original-d="m -66.2567,-105.7312 19.1943,32.2996" />
    <!-- Line -->
    <path
       d="m 32.647,60.701 c 0.136033,1.370778 -0.0878,5.474206 0.816196,8.22467 1.053796,3.206226 3.82502,6.43666 5.73753,9.65499 1.91251,3.21833 3.425148,7.196685 5.73753,9.65499 1.983679,2.108858 5.69487,3.873875 6.833844,4.64865 -0.136033,-1.370778 0.0878,-5.474206 -0.816196,-8.22467 -1.053796,-3.206226 -3.82502,-6.43666 -5.73753,-9.65499 -1.91251,-3.21833 -3.425148,-7.196685 -5.73753,-9.65499 C 37.497165,63.240792 33.785974,61.475775 32.647,60.701 Z"
       style="fill:#000000;fill-rule:nonzero;stroke:none;stroke-width:0.25"
       id="path2669"
       inkscape:path-effect="#path-effect2710"
       inkscape:original-d="M 32.647,60.701 51.7721,92.8843" />
    <!-- Line -->
    <path
       d="m 70.9102,125.0893 c 0.136763,1.372 -0.08496,5.47891 0.82058,8.23202 1.055701,3.20963 3.8294,6.444 5.7441,9.666 1.9147,3.222 3.429626,7.2044 5.7441,9.666 1.98527,2.11146 5.698517,3.87998 6.83822,4.65598 -0.136763,-1.372 0.08496,-5.47891 -0.82058,-8.23202 -1.055701,-3.20963 -3.8294,-6.444 -5.7441,-9.666 -1.9147,-3.222 -3.429626,-7.2044 -5.7441,-9.666 -1.98527,-2.11146 -5.698517,-3.87998 -6.83822,-4.65598 z"
       style="fill:#000000;fill-rule:nonzero;stroke:none;stroke-width:0.25"
       id="path2671"
       inkscape:path-effect="#path-effect2706"
       inkscape:original-d="m 70.9102,125.0893 19.147,32.22" />
    <!-- Line -->
    <path
       d="m -230.1493,0.4492 c -1.56365,-0.58333333 -5.87496,-2.867157 -9.38188,-3.5 -4.15742,-0.7502295 -9.38188,0 -14.07282,0 -4.69094,0 -9.9154,-0.7502295 -14.07282,0 -3.50692,0.632843 -7.81823,2.91666667 -9.38188,3.5 1.56365,0.5833333 5.87496,2.867157 9.38188,3.5 4.15742,0.7502295 9.38188,0 14.07282,0 4.69094,0 9.9154,0.7502295 14.07282,0 3.50692,-0.632843 7.81823,-2.9166667 9.38188,-3.5 z"
       style="fill:#000000;fill-rule:nonzero;stroke:none;stroke-width:0.25"
       id="path2673"
       inkscape:path-effect="#path-effect2700"
       inkscape:original-d="m -230.1493,0.4492 h -46.9094" />
    <!-- Line -->
    <path
       d="m 212.5,0 c 1.56364,0.58335 5.87493,2.8672196 9.38184,3.5001 4.15741,0.7502738 9.38188,10e-5 14.07282,1.5e-4 4.69094,5e-5 9.9154,0.7503352 14.07282,1.5e-4 3.50693,-0.6328056 7.81827,-2.91658333 9.38192,-3.4999 -1.56364,-0.58335 -5.87493,-2.8672196 -9.38184,-3.5001 -4.15741,-0.7502738 -9.38188,-10e-5 -14.07282,-1.5e-4 -4.69094,-5e-5 -9.9154,-0.7503352 -14.07282,-1.5e-4 C 218.37499,-2.8670944 214.06365,-0.58331667 212.5,0 Z"
       style="fill:#000000;fill-rule:nonzero;stroke:none;stroke-width:0.25"
       id="path2675"
       sodipodi:nodetypes="cc"
       inkscape:path-effect="#path-effect2698"
       inkscape:original-d="m 212.5,0 46.9094,5e-4" />
    <!-- Line -->
    <path
       d="m -17.0302,-336.0769 c -0.67348,-1.52699 -2.046659,-6.20862 -4.040883,-9.16194 -2.364134,-3.50112 -6.54758,-6.7193 -9.82137,-10.07895 -3.27379,-3.35965 -6.382608,-7.62499 -9.82137,-10.07895 -2.900707,-2.06999 -7.545231,-3.56388 -9.054277,-4.27666 0.67348,1.52699 2.046659,6.20862 4.040883,9.16194 2.364134,3.50112 6.54758,6.7193 9.82137,10.07895 3.27379,3.35965 6.382608,7.62499 9.82137,10.07895 2.900707,2.06999 7.545231,3.56388 9.054277,4.27666 z"
       style="fill:#000000;fill-rule:nonzero;stroke:none;stroke-width:0.25"
       id="path2677"
       inkscape:path-effect="#path-effect2704"
       inkscape:original-d="m -17.0302,-336.0769 -32.7379,-33.5965" />
    <!-- Line -->
    <path
       d="m -24.7134,329.6981 c -1.560049,0.59289 -6.306953,1.71992 -9.360295,3.55733 -3.619708,2.17823 -7.05178,6.18806 -10.57767,9.28209 -3.52589,3.09403 -7.947627,5.97605 -10.57767,9.28209 -2.218526,2.78874 -3.952721,7.34899 -4.743265,8.81879 1.560049,-0.59289 6.306953,-1.71992 9.360295,-3.55733 3.619708,-2.17823 7.05178,-6.18806 10.57767,-9.28209 3.52589,-3.09403 7.947627,-5.97605 10.57767,-9.28209 2.218526,-2.78874 3.952721,-7.34899 4.743265,-8.81879 z"
       style="fill:#000000;fill-rule:nonzero;stroke:none;stroke-width:0.25"
       id="path2679"
       inkscape:path-effect="#path-effect2702"
       inkscape:original-d="m -24.7134,329.6981 -35.2589,30.9403" />
  </g>
  <text
     xml:space="preserve"
     style="font-style:normal;font-weight:normal;font-size:10.5833px;line-height:1.25;font-family:sans-serif;fill:#000000;fill-opacity:1;stroke:none;stroke-width:0.264583"
     x="-290.46423"
     y="342.24948"
     id="text2720"><tspan
       sodipodi:role="line"
       id="tspan2718"
       x="-290.46423"
       y="342.24948"
       style="font-style:normal;font-variant:normal;font-weight:normal;font-stretch:normal;font-size:180.622px;font-family:Impact;-inkscape-font-specification:'Impact, Normal';font-variant-ligatures:normal;font-variant-caps:normal;font-variant-numeric:normal;font-variant-east-asian:normal;stroke-width:0.264583"><tspan
         style="font-style:normal;font-variant:normal;font-weight:900;font-stretch:normal;font-size:180.622px;font-family:Arial;-inkscape-font-specification:'Arial, Heavy';font-variant-ligatures:normal;font-variant-caps:normal;font-variant-numeric:normal;font-variant-east-asian:normal"
         id="tspan2724">FORTH</tspan><tspan
         style="font-style:normal;font-variant:normal;font-weight:normal;font-stretch:normal;font-size:180.622px;font-family:Arial;-inkscape-font-specification:'Arial, Normal';font-variant-ligatures:normal;font-variant-caps:normal;font-variant-numeric:normal;font-variant-east-asian:normal"
         id="tspan2726">Sight</tspan></tspan></text>
</svg>
